<svg xmlns="http://www.w3.org/2000/svg" viewBox="0 0 157.4 104.1">

<g fill="#FFFFFF">
	<path d="M41.5,6.8h-2.9v8.8c0,4.2,2.7,7,6.9,7c4.2,0,6.9-2.8,6.9-7V6.8h-2.9v8.6c0,2.7-1.6,4.5-4,4.5
		c-2.4,0-4-1.8-4-4.5V6.8z M54,9.3h2.6v8.3c0,3.3,1.7,5,4.7,5c1.4,0.1,2.7-0.4,3.7-1.3l-1.3-2.2c-0.5,0.5-1.3,0.8-2,0.8
		c-1.4,0-2.1-0.8-2.1-2.5V9.3h4.4V6.8h-4.4V2.9h-2.8v3.8H54V9.3z M70,13.2c0-2.6,1.5-4.2,3.9-4.2s3.9,1.6,3.9,4.2v9h2.9v-9.5
		c0-3.9-2.4-6.4-6-6.4c-1.8-0.1-3.6,0.8-4.7,2.3V0h-2.9v22.2H70V13.2z"/>
	<path d="M41.5,67c0-2.6,1.4-4.2,3.7-4.2c2.3,0,3.7,1.6,3.7,4.2v9h2.8v-9c0-2.6,1.4-4.2,3.8-4.2c2.3,0,3.7,1.6,3.7,4.2
		v9h2.9v-9.5c0-4-2.3-6.4-5.9-6.4c-2.2-0.1-4.2,1.2-5,3.1c-0.9-2-3-3.2-5.2-3.1c-1.8,0-3.5,0.8-4.5,2.3v-1.9h-2.9V76h2.9V67z
		 M67.7,67c0-2.6,1.4-4.2,3.7-4.2c2.3,0,3.7,1.6,3.7,4.2v9H78v-9c0-2.6,1.4-4.2,3.8-4.2c2.3,0,3.7,1.6,3.7,4.2v9h2.9v-9.5
		c0-4-2.3-6.4-5.9-6.4c-2.2-0.1-4.2,1.2-5,3.1c-0.9-2-3-3.2-5.2-3.1c-1.8,0-3.5,0.8-4.5,2.3v-1.9h-2.9V76h2.9L67.7,67z M93.7,60.5
		h-2.9v8.8c0,4.2,2.7,7,6.9,7c4.2,0,6.9-2.8,6.9-7v-8.8h-2.9v8.6c0,2.7-1.6,4.5-4,4.5c-2.4,0-4-1.8-4-4.5L93.7,60.5z M110.2,67
		c0-2.6,1.5-4.2,3.9-4.2s3.9,1.6,3.9,4.2v9h2.9v-9.5c0-3.9-2.4-6.4-6-6.4c-1.8-0.1-3.6,0.8-4.7,2.3v-1.9h-2.9V76h2.9V67z
		 M126.4,60.5h-2.9V76h2.9V60.5z M124.9,57.9c1,0,1.8-0.8,1.8-1.8c0-1-0.8-1.8-1.8-1.8c-1,0-1.8,0.8-1.8,1.8
		C123.2,57.1,124,57.8,124.9,57.9 M128.9,63.1h2.6v8.3c0,3.3,1.7,5,4.7,5c1.4,0.1,2.7-0.4,3.7-1.3l-1.3-2.2c-0.5,0.5-1.3,0.8-2,0.8
		c-1.4,0-2.1-0.8-2.1-2.5v-8.2h4.4v-2.6h-4.4v-3.8h-2.8v3.8h-2.6L128.9,63.1z M143.5,60.5h-3.1l7,15.7l-0.5,1.3
		c-0.7,1.9-0.9,2.5-2,2.5c-1.1,0-2.1-0.3-3-1l-1.4,2.2c1,0.9,2.3,1.4,3.7,1.4c2.4,0,4-1.4,5-4.2l6.7-18H153l-4.4,12.1L143.5,60.5z"
		/>
	<path d="M41.5,40.5c0-2.6,1.2-4.2,3-4.2c0.7,0,1.4,0.2,2,0.6l1.2-2.7c-0.7-0.5-1.5-0.7-2.4-0.7c-1.6,0-3.1,0.9-3.9,2.3
		V34h-2.9v15.5h2.9V40.5z M50.6,49.5h2.9v-6.8H56l4.8,6.8h3.6l-5.9-8.3l5.5-7.2h-3.4L55.9,40h-2.4V27.2h-2.9V49.5z M68.6,37.9
		c0-1.1,1.1-2,2.8-2c1.5-0.1,3,0.6,4,1.8l1.7-1.7c-1.1-1.5-3.1-2.4-5.8-2.4c-3.6,0-5.6,2-5.6,4.3c0,5.5,8.8,3.9,8.8,7.4
		c0,1.3-1.1,2.2-3,2.2c-1.8,0.1-3.5-0.7-4.7-2.1l-1.7,1.9c1.6,1.7,3.9,2.7,6.2,2.5c3.9,0,6-2,6-4.6C77.4,39.5,68.6,41.2,68.6,37.9
		 M82.5,40.4c0-2.6,1.5-4.2,3.9-4.2c2.4,0,3.9,1.6,3.9,4.2v9h2.9V40c0-3.9-2.4-6.4-6-6.4c-1.8-0.1-3.6,0.8-4.7,2.3v-8.7h-2.9v22.2
		h2.9L82.5,40.4z M99.4,34h-2.9v15.5h2.9V34z M97.9,31.3c1,0,1.8-0.8,1.8-1.8c0-1-0.8-1.8-1.8-1.8c-1,0-1.8,0.8-1.8,1.8
		C96.1,30.5,96.9,31.3,97.9,31.3 M105.8,40.5c0-2.6,1.2-4.2,3-4.2c0.7,0,1.4,0.2,2,0.6l1.2-2.7c-0.7-0.5-1.5-0.7-2.4-0.7
		c-1.6,0-3.1,0.9-3.9,2.3V34h-2.9v15.5h2.9L105.8,40.5z M119.9,49.8c2.2,0.1,4.4-0.8,5.9-2.3l-1.5-2c-1.2,1.1-2.7,1.7-4.3,1.7
		c-2.8,0-5.1-2.1-5.3-4.9h12.3c0.1-0.3,0.1-0.7,0.1-1c0.1-4.2-3.2-7.7-7.4-7.8l-0.2,0c-4.4,0-7.7,3.6-7.7,8.1
		c-0.1,4.4,3.4,8.1,7.8,8.1C119.7,49.8,119.8,49.8,119.9,49.8 M119.4,36c2.4,0,4.2,1.6,4.7,4.5h-9.4C115.1,38,116.9,36,119.4,36
		 M136.1,37.9c0-1.1,1.1-2,2.8-2c1.5-0.1,3,0.6,4,1.8l1.7-1.7c-1.1-1.5-3.1-2.4-5.8-2.4c-3.6,0-5.6,2-5.6,4.3c0,5.5,8.8,3.9,8.8,7.4
		c0,1.3-1.1,2.2-3,2.2c-1.8,0.1-3.5-0.7-4.7-2.1l-1.7,1.9c1.6,1.7,3.9,2.7,6.2,2.5c3.9,0,6-2,6-4.6
		C144.9,39.5,136.1,41.2,136.1,37.9"/>
	<path d="M41.5,88.2h-2.9V97c0,4.2,2.7,7,6.9,7c4.2,0,6.9-2.8,6.9-7v-8.8h-2.9v8.6c0,2.7-1.6,4.5-4,4.5
		c-2.4,0-4-1.8-4-4.5V88.2z M57.9,94.7c0-2.6,1.5-4.2,3.9-4.2s3.9,1.6,3.9,4.2v9h2.9v-9.5c0-3.9-2.4-6.4-6-6.4
		c-1.8-0.1-3.6,0.8-4.7,2.3v-1.9h-2.9v15.5h2.9L57.9,94.7z M78.6,101.4c-2.9-0.1-5.1-2.5-5-5.3l0-0.1c-0.2-2.8,2-5.3,4.9-5.4l0.2,0
		c2.8,0.1,5.1,2.4,5,5.2l0,0.2c0.2,2.9-2,5.3-4.9,5.5L78.6,101.4 M83.6,81.5v9.1c-1.2-1.8-3.3-2.8-5.4-2.7c-4.3,0-7.5,3.5-7.5,8.1
		c0,4.7,3.3,8.1,7.5,8.1c2.2,0,4.2-1,5.4-2.8v2.4h2.9V81.5L83.6,81.5z M101.8,103.7h2.9V88.2h-2.9v2.3c-1.2-1.8-3.3-2.8-5.4-2.7
		c-4.3,0-7.5,3.5-7.5,8.1c0,4.7,3.3,8.1,7.5,8.1c2.2,0,4.2-1,5.4-2.8V103.7z M96.8,101.4c-2.9-0.1-5.1-2.5-5-5.3l0-0.1
		c-0.2-2.8,2-5.3,4.9-5.4l0.2,0c2.8,0.1,5.1,2.4,5,5.2l0,0.2c0.2,2.9-2,5.3-4.9,5.5L96.8,101.4 M107,90.8h2.6v8.3c0,3.3,1.7,5,4.7,5
		c1.4,0.1,2.7-0.4,3.7-1.3l-1.3-2.2c-0.5,0.5-1.3,0.8-2,0.8c-1.4,0-2.1-0.8-2.1-2.5v-8.2h4.4v-2.6h-4.4v-3.8h-2.8v3.8H107V90.8z
		 M123.5,88.2h-2.9v15.5h2.9L123.5,88.2z M122.1,85.5c1,0,1.8-0.8,1.8-1.8c0-1-0.8-1.8-1.8-1.8c-1,0-1.8,0.8-1.8,1.8
		C120.3,84.7,121.1,85.5,122.1,85.5 M133.8,104.1c4.4,0,8-3.6,7.9-8l0-0.1c0.1-4.4-3.4-8-7.8-8.1l-0.1,0c-4.4,0-7.9,3.6-7.9,8l0,0.1
		C125.8,100.4,129.3,104,133.8,104.1L133.8,104.1 M133.8,101.4c-2.9-0.1-5.1-2.5-5.1-5.3l0-0.1c-0.2-2.8,2-5.3,4.9-5.4l0.2,0
		c2.8,0.1,5.1,2.4,5,5.2l0,0.2c0.2,2.9-2,5.3-4.9,5.5L133.8,101.4 M146.7,94.7c0-2.6,1.5-4.2,3.9-4.2c2.4,0,3.9,1.6,3.9,4.2v9h2.9
		v-9.5c0-3.9-2.4-6.4-6-6.4c-1.8-0.1-3.6,0.8-4.7,2.3v-1.9h-2.9v15.5h2.9L146.7,94.7z"/>
	<path d="M15.7,4.3C13.9,2.2,11.3,1,8.5,1.1c-4.3,0-7.2,2.3-7.2,5.6c0,7.1,11.6,4.9,11.6,10c0,1.9-1.6,3.2-4.5,3.2
		c-2.2,0.1-4.4-1-5.8-2.7l-2.1,2c1.4,2,3.9,3.5,7.8,3.5c4.6,0,7.6-2.5,7.6-6.1c0-7.4-11.6-5.3-11.6-9.9c0-1.7,1.6-2.8,4-2.8
		c2,0,3.9,0.9,5.1,2.5L15.7,4.3z"/>
	<polygon points="8.2,49.5 11.2,49.5 11.2,42.5 18.9,28.7 15.8,28.7 9.8,39.4 3.8,28.7 0.6,28.7 8.3,42.5 	"/>
	<polygon points="4.2,103.7 7.1,103.7 7.1,95 15.7,95 15.7,92.3 7.1,92.3 7.1,85.8 17,85.8 17,83 4.2,83 	"/>
	<path d="M130.6,34c1.3-1.1,2-2.6,2.1-4.2c0.1-1-0.6-1.9-1.6-2l-0.2,0c-1,0-1.9,0.7-1.9,1.7l0,0.1
		c0,0.9,0.6,1.6,1.5,1.7l0.2,0c-0.4,1-0.9,1.9-1.6,2.7H130.6z"/>
	<path d="M17,56.7c-1.9-1.2-4.1-1.9-6.4-1.8C4.7,55,0,59.8,0,65.7l0,0c-0.1,5.9,4.6,10.7,10.5,10.7l0.2,0
		c2.3,0.1,4.5-0.6,6.3-1.9l-1.5-2.3c-1.4,0.9-3,1.4-4.6,1.4c-4.3,0-7.7-3.4-7.7-7.7l0-0.2c-0.1-4.2,3.2-7.8,7.5-7.9l0,0
		c1.6,0,3.1,0.4,4.4,1.2L17,56.7"/>
</g>
<g fill="#F9DE3F">
	<path d="M36.3,13.6L36.3,13.6L36.1,13L36,13.1c0-0.3-0.1-0.6-0.1-1c-0.1-0.5-0.1-1-0.2-1.5c0-0.4-0.1-0.8-0.2-1.1
		C35,8.2,34.1,7,33,6c-0.1-0.1-0.3-0.2-0.4-0.3c-0.5-0.5-1-0.8-1.7-0.9c-0.7-0.1-1.3-0.3-2-0.4l-0.8-0.1l-0.4-0.1l0,0.1h-0.1
		c-0.1,0-0.2,0-0.3,0c-0.2,0-0.5,0.1-0.7,0.1c-1,0-2,0.3-2.9,0.7l-0.1,0.1c-0.9,0.4-1.8,1-2.5,1.8c-0.2,0.2-0.3,0.4-0.5,0.6
		c-0.4,0.5-0.8,1-1.2,1.5c-0.3,0.7-0.6,1.4-0.8,2.2c0,0.1-0.1,0.3-0.1,0.4c-0.6,2.2-0.4,4.5,0.5,6.5c0.7,1.3,1.6,2.3,2.8,3.1
		c0.2,0.2,0.5,0.3,0.8,0.4c0.4,0.1,0.9,0.2,1.3,0.2c1,0.2,2,0.4,3,0.4c0.4,0,0.9,0,1.3-0.1c1.2-0.2,2.3-0.5,3.4-1
		c1-0.4,1.9-1.2,2.6-2.1c0.5-0.6,0.9-1.3,1.2-2.1c0.2-0.7,0.4-1.4,0.6-2.2c0.1-0.3,0.1-0.6,0.2-0.9C36.4,13.9,36.3,13.8,36.3,13.6z
		 M33.8,14c0,0.3-0.1,0.6-0.2,0.9c-0.1,0.2-0.1,0.5-0.2,0.7c-0.2,1.1-0.8,2-1.6,2.8c-0.6,0.6-1.3,1.1-2.1,1.4
		c-0.6,0.2-1.3,0.4-1.9,0.6c-0.2,0-0.3,0.1-0.5,0.1c-1.4,0.1-2.8-0.2-4-0.9c-0.7-0.5-1.4-1.1-1.8-1.8c-0.5-0.7-0.8-1.6-0.8-2.4
		c0-0.1,0-0.2,0-0.4c-0.1-0.9-0.2-1.8-0.1-2.7c0.1-1,0.5-2,1.2-2.7c0.9-1.1,2.1-1.9,3.4-2.5c0.7-0.4,1.5-0.6,2.4-0.6l0,0
		c0.4,0,0.8,0.1,1.2,0.2c0.2,0.1,0.3,0.1,0.5,0.2c1,0.2,1.9,0.6,2.7,1.2c0.9,0.7,1.5,1.7,1.6,2.8c0,0.2,0.1,0.4,0.1,0.6
		c0.1,0.2,0.1,0.4,0.1,0.6C33.9,12.7,33.9,13.4,33.8,14z"/>
	<path d="M31,14.5L31,14.5c-0.2-0.1-0.3-0.1-0.4-0.1c-0.2,0-0.5,0.2-0.5,0.4c-0.4,0.8-1.2,1.4-2,1.5l-0.3,0.1
		c-0.3,0.1-0.6,0.1-0.9,0.1c-0.1,0-0.3,0-0.4-0.1c-0.6-0.2-1.2-0.6-1.6-1.1l-0.2-0.1c-0.2-0.2-0.5-0.4-0.8-0.5l-0.2,0
		c-0.3,0-0.6,0.1-0.7,0.4c-0.1,0.3-0.1,0.7,0.2,0.9c0.2,0.2,0.3,0.3,0.5,0.5c0.1,0.1,0.2,0.1,0.3,0.2c0.9,0.8,2,1.2,3.1,1.3h0l0,0
		c0.1,0,0.2,0,0.3,0c0.3,0,0.7-0.1,1.1-0.2c0.4-0.1,0.7-0.2,1-0.3l0.2-0.1c0.4-0.1,0.7-0.3,0.9-0.7c0.1-0.2,0.2-0.4,0.4-0.5
		c0.1-0.2,0.3-0.3,0.4-0.5c0.1-0.2,0.2-0.4,0.1-0.6C31.6,14.9,31.5,14.7,31,14.5z"/>
</g>
<g fill="#00BDEC">
	<path d="M35.7,39.2c0-0.1-0.1-0.3-0.1-0.4c-0.2-0.7-0.4-1.5-0.8-2.2c-0.3-0.5-0.7-1-1.2-1.5c-0.2-0.2-0.4-0.4-0.5-0.6
		c-0.7-0.7-1.5-1.3-2.5-1.8l-0.1-0.1c-0.9-0.4-1.9-0.7-2.9-0.7c-0.2,0-0.5,0-0.7-0.1c-0.1,0-0.2,0-0.3,0h-0.1l0-0.1l-0.4,0.1
		L25.4,32c-0.7,0.1-1.3,0.2-2,0.4c-0.6,0.2-1.2,0.5-1.7,0.9c-0.1,0.1-0.3,0.2-0.4,0.3c-1.1,0.9-2,2.1-2.5,3.5
		c-0.1,0.4-0.2,0.7-0.2,1.1c-0.1,0.5-0.1,1-0.2,1.5c0,0.3-0.1,0.6-0.1,1l-0.1-0.1l-0.1,0.6l0,0c0,0.1-0.1,0.2,0,0.3
		c0.1,0.3,0.1,0.6,0.2,0.9c0.1,0.7,0.3,1.5,0.6,2.2c0.3,0.8,0.7,1.5,1.2,2.1c0.6,0.9,1.5,1.7,2.6,2.1c1.1,0.4,2.2,0.7,3.4,1
		c0.4,0.1,0.9,0.1,1.3,0.1c1,0,2-0.2,3-0.4c0.4-0.1,0.9-0.2,1.3-0.2c0.3-0.1,0.5-0.2,0.8-0.4c1.2-0.8,2.1-1.9,2.8-3.1
		C36.2,43.6,36.3,41.3,35.7,39.2z M33.7,42.6c0,0.1,0,0.2,0,0.4c-0.1,0.9-0.4,1.7-0.8,2.4c-0.5,0.7-1.1,1.3-1.8,1.8
		c-1.2,0.7-2.6,1-4,0.9c-0.1,0-0.3-0.1-0.5-0.1c-0.6-0.1-1.3-0.3-1.9-0.6c-0.8-0.3-1.5-0.8-2.1-1.4c-0.8-0.7-1.4-1.7-1.7-2.8
		c0-0.2-0.1-0.5-0.2-0.7c-0.1-0.3-0.2-0.6-0.2-0.9c0-0.7,0-1.3,0-2c0-0.2,0.1-0.4,0.1-0.6c0.1-0.2,0.1-0.4,0.1-0.6
		c0.2-1.1,0.7-2.1,1.6-2.8c0.8-0.6,1.7-1,2.7-1.2c0.2-0.1,0.3-0.1,0.5-0.2c0.4-0.1,0.8-0.2,1.2-0.2c0.8,0,1.6,0.2,2.4,0.6
		c1.3,0.6,2.5,1.4,3.4,2.5c0.7,0.8,1.1,1.7,1.2,2.7C33.9,40.8,33.9,41.7,33.7,42.6z"/>
	<path d="M30.6,42.2l-0.2,0c-0.3,0.1-0.5,0.3-0.8,0.5l-0.2,0.2c-0.4,0.5-1,0.8-1.6,1c-0.1,0-0.3,0.1-0.4,0
		c-0.3,0-0.6-0.1-0.9-0.1l-0.3-0.1c-0.9-0.1-1.7-0.7-2-1.5c-0.1-0.2-0.3-0.4-0.5-0.4c-0.1,0-0.2,0-0.4,0.1l-0.1,0
		c-0.3,0.1-0.5,0.3-0.6,0.5c-0.1,0.2,0,0.4,0.1,0.6c0.1,0.2,0.2,0.3,0.4,0.5c0.1,0.2,0.3,0.3,0.4,0.5c0.2,0.3,0.5,0.6,0.9,0.7
		l0.2,0.1c0.3,0.1,0.7,0.2,1,0.3c0.4,0.1,0.8,0.1,1.1,0.2c0.1,0,0.2,0,0.3,0l0,0h0c1.2,0,2.3-0.5,3.1-1.3c0.1-0.1,0.2-0.1,0.3-0.2
		c0.2-0.1,0.4-0.3,0.5-0.5c0.2-0.3,0.3-0.6,0.2-0.9C31.2,42.4,30.9,42.2,30.6,42.2z"/>
</g>
<g fill="#91C73D">
	<path d="M35.8,93.3c0-0.1-0.1-0.3-0.1-0.4c-0.2-0.8-0.4-1.5-0.8-2.2c-0.3-0.5-0.7-1.1-1.2-1.5
		c-0.2-0.2-0.3-0.4-0.5-0.6c-0.7-0.8-1.5-1.4-2.5-1.8l-0.1-0.1c-0.9-0.4-1.9-0.7-2.9-0.7c-0.2,0-0.5,0-0.7-0.1c-0.1,0-0.2,0-0.3,0
		h-0.1l0-0.1L26.3,86l-0.8,0.2c-0.6,0.1-1.3,0.2-2,0.4c-0.6,0.2-1.2,0.5-1.7,1c-0.1,0.1-0.3,0.2-0.4,0.3c-1.1,0.9-2,2.1-2.5,3.5
		c-0.1,0.4-0.2,0.7-0.2,1.1c-0.1,0.5-0.1,1-0.2,1.5c0,0.3-0.1,0.6-0.1,1l-0.1-0.1l-0.1,0.6l0,0c0,0.1-0.1,0.2,0,0.3
		c0.1,0.3,0.1,0.6,0.2,0.9c0.1,0.7,0.3,1.5,0.6,2.2c0.3,0.8,0.7,1.5,1.2,2.1c0.6,0.9,1.5,1.7,2.6,2.1c1.1,0.4,2.2,0.7,3.4,1
		c0.4,0.1,0.9,0.1,1.3,0.1c1,0,2-0.2,3-0.4c0.4-0.1,0.8-0.2,1.3-0.2c0.3-0.1,0.5-0.2,0.8-0.4c1.2-0.8,2.1-1.9,2.8-3.2
		C36.2,97.8,36.4,95.5,35.8,93.3z M33.8,96.8c0,0.1,0,0.2,0,0.4c-0.1,0.9-0.4,1.7-0.8,2.4c-0.5,0.7-1.1,1.3-1.8,1.8
		c-1.2,0.7-2.6,1-4,0.9c-0.1,0-0.3-0.1-0.5-0.1c-0.6-0.1-1.3-0.3-1.9-0.6c-0.8-0.3-1.5-0.8-2.1-1.4c-0.8-0.7-1.4-1.7-1.7-2.8
		c0-0.2-0.1-0.5-0.2-0.7c-0.1-0.3-0.2-0.6-0.2-0.9c0-0.7,0-1.4,0-2c0-0.2,0.1-0.4,0.1-0.6c0.1-0.2,0.1-0.4,0.1-0.6
		c0.2-1.1,0.7-2.1,1.6-2.8c0.8-0.6,1.7-1,2.7-1.2c0.2-0.1,0.3-0.1,0.5-0.2c0.4-0.1,0.8-0.2,1.2-0.2c0.8,0,1.6,0.2,2.4,0.6
		c1.3,0.6,2.5,1.5,3.4,2.5c0.7,0.8,1.1,1.7,1.2,2.8C34,95,33.9,95.9,33.8,96.8z"/>
	<path d="M30.7,96.4l-0.2,0c-0.3,0.1-0.5,0.3-0.8,0.5l-0.2,0.1c-0.4,0.5-1,0.8-1.6,1.1c-0.1,0-0.3,0.1-0.4,0.1
		c-0.3,0-0.6-0.1-0.9-0.1L26.4,98c-0.9-0.1-1.7-0.7-2-1.5c-0.1-0.2-0.3-0.4-0.5-0.4c-0.1,0-0.2,0-0.4,0.1l-0.1,0
		c-0.3,0.1-0.5,0.3-0.6,0.5c-0.1,0.2,0,0.4,0.1,0.6c0.1,0.2,0.2,0.3,0.4,0.5c0.1,0.2,0.3,0.3,0.4,0.5c0.2,0.3,0.5,0.6,0.9,0.7
		l0.2,0.1c0.3,0.1,0.7,0.2,1,0.3c0.4,0.1,0.8,0.1,1.1,0.2l0.3,0l0,0h0c1.2,0,2.3-0.5,3.1-1.3c0.1-0.1,0.2-0.1,0.3-0.2
		c0.2-0.1,0.4-0.3,0.5-0.5c0.2-0.3,0.3-0.6,0.2-0.9C31.2,96.6,31,96.4,30.7,96.4z"/>
</g>
<g fill="#ED1555">
	<path d="M36.3,67.7L36.3,67.7l-0.1-0.6L36,67.2c0-0.3-0.1-0.7-0.1-1c-0.1-0.5-0.1-1-0.2-1.5c0-0.4-0.1-0.8-0.2-1.1
		C35,62.2,34.2,61,33,60.1c-0.1-0.1-0.3-0.2-0.4-0.3c-0.5-0.5-1-0.8-1.7-1c-0.7-0.1-1.3-0.2-2-0.4l-0.8-0.2l-0.4-0.1l0,0.1h-0.1
		c-0.1,0-0.2,0-0.3,0c-0.2,0-0.5,0.1-0.7,0.1c-1,0-2,0.3-2.9,0.7l-0.1,0.1c-0.9,0.4-1.8,1-2.5,1.8c-0.2,0.2-0.3,0.4-0.5,0.6
		c-0.4,0.5-0.8,1-1.2,1.5c-0.3,0.7-0.6,1.4-0.8,2.2c0,0.1-0.1,0.3-0.1,0.4c-0.6,2.2-0.4,4.5,0.5,6.5c0.7,1.3,1.6,2.3,2.8,3.2
		c0.2,0.2,0.5,0.3,0.8,0.4c0.4,0.1,0.9,0.2,1.3,0.2c1,0.2,2,0.4,3,0.4c0.4,0,0.9,0,1.3-0.1c1.2-0.2,2.3-0.6,3.4-1
		c1-0.4,1.9-1.2,2.6-2.1c0.5-0.6,0.9-1.3,1.2-2.1c0.2-0.7,0.4-1.5,0.6-2.2c0.1-0.3,0.1-0.6,0.2-0.9C36.4,68,36.4,67.8,36.3,67.7z
		 M27.5,60.5c0.4,0,0.8,0.1,1.2,0.2c0.2,0.1,0.3,0.1,0.5,0.2c1,0.2,1.9,0.7,2.7,1.2c0.9,0.7,1.5,1.7,1.6,2.8c0,0.2,0.1,0.4,0.1,0.6
		c0.1,0.2,0.1,0.4,0.1,0.6c0.1,0.7,0.1,1.3,0,2c0,0.3-0.1,0.6-0.2,0.9c-0.1,0.2-0.1,0.5-0.2,0.7c-0.2,1.1-0.8,2.1-1.6,2.8
		c-0.6,0.6-1.3,1.1-2.1,1.4c-0.6,0.2-1.3,0.4-1.9,0.6c-0.2,0-0.3,0.1-0.5,0.1c-1.4,0.1-2.8-0.2-4-0.9c-0.7-0.5-1.3-1.1-1.8-1.8
		c-0.5-0.7-0.8-1.6-0.8-2.4c0-0.1,0-0.2,0-0.4c-0.1-0.9-0.2-1.8-0.1-2.7c0.1-1,0.5-2,1.2-2.8c0.9-1.1,2.1-2,3.4-2.5
		C25.9,60.7,26.7,60.5,27.5,60.5z"/>
	<path d="M24.4,68.8c-0.1-0.2-0.3-0.4-0.5-0.4c-0.1,0-0.2,0-0.4,0.1l-0.1,0c-0.3,0.1-0.5,0.3-0.6,0.5
		c-0.1,0.2,0,0.4,0.1,0.6c0.1,0.2,0.2,0.3,0.4,0.5c0.1,0.2,0.3,0.3,0.4,0.5c0.2,0.3,0.5,0.6,0.9,0.7l0.2,0.1c0.3,0.1,0.7,0.2,1,0.3
		c0.4,0.1,0.8,0.1,1.1,0.2l0.3,0l0,0h0c1.2,0,2.3-0.5,3.1-1.3c0.1-0.1,0.2-0.1,0.3-0.2c0.2-0.1,0.4-0.3,0.5-0.5
		c0.2-0.3,0.3-0.6,0.2-0.9c-0.2-0.2-0.4-0.4-0.7-0.4l-0.2,0c-0.3,0.1-0.5,0.3-0.8,0.5l-0.2,0.1c-0.4,0.5-1,0.8-1.6,1.1
		c-0.1,0-0.3,0.1-0.4,0.1c-0.3,0-0.6-0.1-0.9-0.1l-0.3-0.1C25.5,70.2,24.7,69.7,24.4,68.8z"/>
</g>
</svg>
